<svg width="1000" height="300" viewBox="0 0 1000 300" fill="none" xmlns="http://www.w3.org/2000/svg">
<g clip-path="url(#clip0_11_5)">
<rect width="1000" height="300" fill="white"/>
<rect width="1000" height="300" fill="url(#paint0_linear_11_5)"/>
<g filter="url(#filter0_d_11_5)">
<path d="M423.755 109.797H433.799L459.419 173.552L484.985 109.797H495.083L463.286 188H455.444L423.755 109.797ZM420.479 109.797H429.341L430.791 157.492V188H420.479V109.797ZM489.443 109.797H498.306V188H487.993V157.492L489.443 109.797ZM512.378 159.587V158.352C512.378 154.162 512.987 150.277 514.204 146.696C515.422 143.08 517.176 139.947 519.468 137.297C521.759 134.611 524.535 132.535 527.793 131.066C531.051 129.562 534.704 128.811 538.75 128.811C542.832 128.811 546.502 129.562 549.761 131.066C553.055 132.535 555.848 134.611 558.14 137.297C560.467 139.947 562.24 143.08 563.457 146.696C564.674 150.277 565.283 154.162 565.283 158.352V159.587C565.283 163.776 564.674 167.661 563.457 171.242C562.24 174.823 560.467 177.956 558.14 180.642C555.848 183.291 553.073 185.368 549.814 186.872C546.592 188.34 542.939 189.074 538.857 189.074C534.775 189.074 531.105 188.34 527.847 186.872C524.588 185.368 521.795 183.291 519.468 180.642C517.176 177.956 515.422 174.823 514.204 171.242C512.987 167.661 512.378 163.776 512.378 159.587ZM522.314 158.352V159.587C522.314 162.487 522.655 165.227 523.335 167.805C524.015 170.347 525.036 172.603 526.396 174.572C527.793 176.542 529.53 178.099 531.606 179.245C533.683 180.355 536.1 180.91 538.857 180.91C541.579 180.91 543.96 180.355 546.001 179.245C548.078 178.099 549.797 176.542 551.157 174.572C552.518 172.603 553.538 170.347 554.219 167.805C554.935 165.227 555.293 162.487 555.293 159.587V158.352C555.293 155.487 554.935 152.784 554.219 150.241C553.538 147.663 552.5 145.389 551.104 143.42C549.743 141.415 548.024 139.839 545.947 138.693C543.906 137.548 541.507 136.975 538.75 136.975C536.029 136.975 533.63 137.548 531.553 138.693C529.512 139.839 527.793 141.415 526.396 143.42C525.036 145.389 524.015 147.663 523.335 150.241C522.655 152.784 522.314 155.487 522.314 158.352ZM588.54 105.5V188H578.55V105.5H588.54ZM628.608 189.074C624.562 189.074 620.892 188.394 617.598 187.033C614.339 185.637 611.528 183.685 609.165 181.179C606.838 178.672 605.047 175.7 603.794 172.263C602.541 168.825 601.914 165.065 601.914 160.983V158.728C601.914 154.001 602.612 149.794 604.009 146.105C605.405 142.382 607.303 139.23 609.702 136.652C612.101 134.074 614.823 132.123 617.866 130.798C620.91 129.473 624.061 128.811 627.319 128.811C631.473 128.811 635.054 129.527 638.062 130.959C641.105 132.391 643.594 134.396 645.527 136.975C647.461 139.517 648.893 142.525 649.824 145.998C650.755 149.436 651.221 153.195 651.221 157.277V161.735H607.822V153.625H641.284V152.873C641.141 150.295 640.604 147.788 639.673 145.354C638.778 142.919 637.345 140.913 635.376 139.338C633.407 137.762 630.721 136.975 627.319 136.975C625.063 136.975 622.987 137.458 621.089 138.425C619.191 139.356 617.562 140.752 616.201 142.614C614.84 144.476 613.784 146.75 613.032 149.436C612.28 152.121 611.904 155.218 611.904 158.728V160.983C611.904 163.741 612.28 166.337 613.032 168.771C613.82 171.171 614.948 173.283 616.416 175.109C617.92 176.936 619.728 178.368 621.841 179.406C623.989 180.445 626.424 180.964 629.146 180.964C632.655 180.964 635.627 180.248 638.062 178.815C640.496 177.383 642.627 175.467 644.453 173.068L650.469 177.849C649.215 179.746 647.622 181.555 645.688 183.273C643.755 184.992 641.374 186.389 638.545 187.463C635.752 188.537 632.44 189.074 628.608 189.074ZM686.079 180.91C688.442 180.91 690.627 180.427 692.632 179.46C694.637 178.493 696.284 177.168 697.573 175.485C698.862 173.767 699.596 171.815 699.775 169.631H709.229C709.049 173.068 707.886 176.273 705.737 179.245C703.625 182.181 700.85 184.562 697.412 186.389C693.975 188.179 690.197 189.074 686.079 189.074C681.711 189.074 677.897 188.304 674.639 186.765C671.416 185.225 668.73 183.112 666.582 180.427C664.469 177.741 662.876 174.662 661.802 171.188C660.763 167.679 660.244 163.973 660.244 160.07V157.814C660.244 153.911 660.763 150.223 661.802 146.75C662.876 143.241 664.469 140.144 666.582 137.458C668.73 134.772 671.416 132.66 674.639 131.12C677.897 129.58 681.711 128.811 686.079 128.811C690.627 128.811 694.601 129.742 698.003 131.604C701.405 133.43 704.072 135.936 706.006 139.123C707.975 142.274 709.049 145.855 709.229 149.865H699.775C699.596 147.466 698.916 145.3 697.734 143.366C696.589 141.433 695.013 139.893 693.008 138.747C691.038 137.565 688.729 136.975 686.079 136.975C683.035 136.975 680.475 137.583 678.398 138.801C676.357 139.982 674.728 141.594 673.511 143.635C672.329 145.64 671.47 147.878 670.933 150.349C670.431 152.784 670.181 155.272 670.181 157.814V160.07C670.181 162.613 670.431 165.119 670.933 167.59C671.434 170.061 672.275 172.299 673.457 174.304C674.674 176.309 676.304 177.92 678.345 179.138C680.422 180.319 683 180.91 686.079 180.91ZM755.957 174.572V129.885H765.947V188H756.44L755.957 174.572ZM757.837 162.326L761.973 162.219C761.973 166.086 761.561 169.667 760.737 172.961C759.95 176.219 758.66 179.048 756.87 181.447C755.08 183.846 752.734 185.726 749.834 187.087C746.934 188.412 743.407 189.074 739.253 189.074C736.424 189.074 733.828 188.662 731.465 187.839C729.137 187.015 727.132 185.744 725.449 184.025C723.766 182.307 722.459 180.069 721.528 177.312C720.633 174.554 720.186 171.242 720.186 167.375V129.885H730.122V167.482C730.122 170.096 730.409 172.263 730.981 173.981C731.59 175.664 732.396 177.007 733.398 178.01C734.437 178.977 735.583 179.657 736.836 180.051C738.125 180.445 739.45 180.642 740.811 180.642C745.036 180.642 748.384 179.836 750.854 178.225C753.325 176.577 755.098 174.375 756.172 171.618C757.282 168.825 757.837 165.728 757.837 162.326ZM791.89 105.5V188H781.899V105.5H791.89ZM831.958 189.074C827.912 189.074 824.242 188.394 820.947 187.033C817.689 185.637 814.878 183.685 812.515 181.179C810.187 178.672 808.397 175.7 807.144 172.263C805.89 168.825 805.264 165.065 805.264 160.983V158.728C805.264 154.001 805.962 149.794 807.358 146.105C808.755 142.382 810.653 139.23 813.052 136.652C815.451 134.074 818.172 132.123 821.216 130.798C824.259 129.473 827.41 128.811 830.669 128.811C834.823 128.811 838.403 129.527 841.411 130.959C844.455 132.391 846.943 134.396 848.877 136.975C850.811 139.517 852.243 142.525 853.174 145.998C854.105 149.436 854.57 153.195 854.57 157.277V161.735H811.172V153.625H844.634V152.873C844.491 150.295 843.953 147.788 843.022 145.354C842.127 142.919 840.695 140.913 838.726 139.338C836.756 137.762 834.071 136.975 830.669 136.975C828.413 136.975 826.336 137.458 824.438 138.425C822.541 139.356 820.911 140.752 819.551 142.614C818.19 144.476 817.134 146.75 816.382 149.436C815.63 152.121 815.254 155.218 815.254 158.728V160.983C815.254 163.741 815.63 166.337 816.382 168.771C817.17 171.171 818.298 173.283 819.766 175.109C821.27 176.936 823.078 178.368 825.19 179.406C827.339 180.445 829.774 180.964 832.495 180.964C836.004 180.964 838.976 180.248 841.411 178.815C843.846 177.383 845.977 175.467 847.803 173.068L853.818 177.849C852.565 179.746 850.972 181.555 849.038 183.273C847.104 184.992 844.723 186.389 841.895 187.463C839.102 188.537 835.789 189.074 831.958 189.074Z" fill="white"/>
</g>
<g filter="url(#filter1_d_11_5)">
<rect x="227" y="75" width="13" height="136" fill="white"/>
<rect width="12.361" height="74.9756" transform="matrix(-0.443827 -0.896112 0.902171 -0.431378 232.472 154.455)" fill="white"/>
<rect width="12.361" height="74.9756" transform="matrix(0.443827 0.896112 -0.902171 0.431378 233.528 143.304)" fill="white"/>
<rect width="12.361" height="74.9756" transform="matrix(-0.443827 0.896112 0.902171 0.431378 232.472 147)" fill="white"/>
<rect width="12.3796" height="86.4021" transform="matrix(0.532163 -0.846642 0.854909 0.518778 165.326 113.754)" fill="white"/>
<ellipse cx="233" cy="85.5" rx="19" ry="17.5" fill="#D9D9D9"/>
<ellipse rx="18.789" ry="18.4958" transform="matrix(0.974068 -0.226257 0.233925 0.972255 175.644 113.799)" fill="#D9D9D9"/>
<ellipse rx="18.7439" ry="18.5415" transform="matrix(0.902171 -0.431378 0.443827 0.896112 292.861 118.73)" fill="#D9D9D9"/>
<ellipse rx="18.7439" ry="18.5415" transform="matrix(-0.902171 0.431378 -0.443827 -0.896112 173.139 179.029)" fill="#D9D9D9"/>
<ellipse rx="18.7439" ry="18.5415" transform="matrix(0.902171 0.431378 0.443827 -0.896112 292.861 182.725)" fill="#D9D9D9"/>
<ellipse cx="233.255" cy="149.464" rx="25.075" ry="24.6377" fill="#D9D9D9"/>
<ellipse cx="233.255" cy="213.522" rx="18.8063" ry="18.4783" fill="#D9D9D9"/>
</g>
</g>
<defs>
<filter id="filter0_d_11_5" x="416.479" y="105.5" width="442.092" height="91.5742" filterUnits="userSpaceOnUse" color-interpolation-filters="sRGB">
<feFlood flood-opacity="0" result="BackgroundImageFix"/>
<feColorMatrix in="SourceAlpha" type="matrix" values="0 0 0 0 0 0 0 0 0 0 0 0 0 0 0 0 0 0 127 0" result="hardAlpha"/>
<feOffset dy="4"/>
<feGaussianBlur stdDeviation="2"/>
<feComposite in2="hardAlpha" operator="out"/>
<feColorMatrix type="matrix" values="0 0 0 0 0 0 0 0 0 0 0 0 0 0 0 0 0 0 0.25 0"/>
<feBlend mode="normal" in2="BackgroundImageFix" result="effect1_dropShadow_11_5"/>
<feBlend mode="normal" in="SourceGraphic" in2="effect1_dropShadow_11_5" result="shape"/>
</filter>
<filter id="filter1_d_11_5" x="150.329" y="68" width="165.342" height="172" filterUnits="userSpaceOnUse" color-interpolation-filters="sRGB">
<feFlood flood-opacity="0" result="BackgroundImageFix"/>
<feColorMatrix in="SourceAlpha" type="matrix" values="0 0 0 0 0 0 0 0 0 0 0 0 0 0 0 0 0 0 127 0" result="hardAlpha"/>
<feOffset dy="4"/>
<feGaussianBlur stdDeviation="2"/>
<feComposite in2="hardAlpha" operator="out"/>
<feColorMatrix type="matrix" values="0 0 0 0 0 0 0 0 0 0 0 0 0 0 0 0 0 0 0.25 0"/>
<feBlend mode="normal" in2="BackgroundImageFix" result="effect1_dropShadow_11_5"/>
<feBlend mode="normal" in="SourceGraphic" in2="effect1_dropShadow_11_5" result="shape"/>
</filter>
<linearGradient id="paint0_linear_11_5" x1="0" y1="0" x2="1000" y2="300" gradientUnits="userSpaceOnUse">
<stop offset="0.117615" stop-color="#E74C3C"/>
<stop offset="0.965321" stop-color="#F39C12"/>
</linearGradient>
<clipPath id="clip0_11_5">
<rect width="1000" height="300" fill="white"/>
</clipPath>
</defs>
</svg>
